<svg version="1.1" id="Layer_1" xmlns="http://www.w3.org/2000/svg"
     xmlns:xlink="http://www.w3.org/1999/xlink"
     width="100%" height="100%" viewBox="0 0 624 624" xml:space="preserve">
  <path fill="#888888" stroke="none"
        d="M419.38,236.65
           C419.83,240.18 417.86,242.0 415.95,243.91
           C396.14,263.70 376.35,283.51 356.59,303.34
           C355.47,304.47 353.85,305.25 353.54,307.16
           C355.28,308.11 357.13,307.64 358.90,307.64
           C390.56,307.68 422.23,307.77 453.89,307.58
           C458.79,307.55 460.50,308.72 460.46,313.93
           C460.21,345.26 460.24,376.60 460.42,407.93
           C460.44,412.65 459.14,414.24 454.26,414.23
           C357.92,414.11 261.59,414.14 165.26,414.14
           C159.22,414.13 158.83,413.71 158.83,407.51
           C158.82,376.35 158.93,345.18 158.72,314.02
           C158.68,308.86 160.36,307.54 165.32,307.57
           C196.32,307.77 227.32,307.69 258.32,307.65
           C260.41,307.64 262.66,308.24 264.63,306.71
           C264.80,304.28 262.75,303.31 261.44,301.99
           C242.99,283.43 224.61,264.81 205.92,246.50
           C201.53,242.21 199.09,237.91 199.68,231.66
           C200.15,226.71 199.88,221.67 199.73,216.67
           C199.63,213.30 200.91,211.65 204.37,211.85
           C205.87,211.94 207.37,211.86 208.87,211.86
           C276.54,211.86 344.20,211.85 411.87,211.85
           C419.35,211.85 419.35,211.86 419.36,219.19
           C419.36,224.86 419.37,230.52 419.38,236.65
           z"/>
</svg>

